<svg width="500" height="427" viewBox="0 0 500 427" fill="none" xmlns="http://www.w3.org/2000/svg">
<path d="M500 150C500 67.1573 388.071 0 250 0C111.929 0 0 67.1573 0 150V180C0 163.431 22.3858 150 50 150C77.6142 150 100 163.431 100 180C100 163.431 122.386 150 150 150C177.614 150 200 163.431 200 180C200 166.567 214.714 155.196 235 151.373V210H265V151.373C285.286 155.196 300 166.567 300 180C300 163.431 322.386 150 350 150C377.614 150 400 163.431 400 180C400 163.431 422.386 150 450 150C477.614 150 500 163.431 500 180V150Z" fill="white"/>
<path fill-rule="evenodd" clip-rule="evenodd" d="M91.875 226.688V260L96.875 257.812V238.906H115.062V260L120.062 257.812V226.688C120.062 222.854 118.688 219.583 115.938 216.875C113.188 214.146 109.865 212.781 105.969 212.781C102.073 212.781 98.75 214.146 96 216.875C93.25 219.583 91.875 222.854 91.875 226.688ZM115.062 226.594V233.906H96.875V226.5C96.875 224.062 97.7604 221.969 99.5312 220.219C101.323 218.448 103.469 217.562 105.969 217.562C108.448 217.562 110.583 218.448 112.375 220.219C114.146 221.969 115.042 224.094 115.062 226.594Z" fill="white"/>
<path d="M135.969 252.938C135.427 252.208 135.156 251.5 135.156 250.812C135.156 249.104 136.24 247.74 138.406 246.719L148.688 242.531V260L153.688 257.812V236.75C153.688 233.5 152.542 230.729 150.25 228.438C147.958 226.146 145.188 225 141.938 225C138.688 225 136 226.125 133.875 228.375C131.375 231.042 130.125 233.833 130.125 236.75V239.5L135.125 237.281V236.844C135.167 234.906 135.833 233.302 137.125 232.031C138.458 230.719 140 230.062 141.75 230.062C143.75 230.062 145.406 230.74 146.719 232.094C148.031 233.427 148.688 235.083 148.688 237.062L135.969 242.281C131.99 243.906 130 246.667 130 250.562V250.812C130 252.979 130.812 254.896 132.438 256.562C134.854 258.854 137.625 260 140.75 260C142.729 260 144.531 259.573 146.156 258.719L144.281 254C143.26 254.625 142.083 254.938 140.75 254.938C138.562 254.938 136.969 254.271 135.969 252.938Z" fill="white"/>
<path d="M166.062 236.75V260L171.062 257.812V236.75C171.062 234.917 171.729 233.344 173.062 232.031C174.396 230.719 176.01 230.062 177.906 230.062C179.719 230.062 181.292 230.719 182.625 232.031C183.917 233.302 184.583 234.906 184.625 236.844V239.062L189.625 236.875V236.75C189.625 233.583 188.469 230.812 186.156 228.438C183.906 226.146 181.125 225 177.812 225C174.562 225 171.792 226.146 169.5 228.438C167.208 230.729 166.062 233.5 166.062 236.75Z" fill="white"/>
<path fill-rule="evenodd" clip-rule="evenodd" d="M205.438 228.438C203.146 230.729 202 233.5 202 236.75V248.25C202 251.5 203.146 254.271 205.438 256.562C207.729 258.854 210.5 260 213.75 260C217 260 219.781 258.854 222.094 256.562C224.406 254.271 225.562 251.5 225.562 248.25V236.75C225.562 233.5 224.406 230.729 222.094 228.438C219.781 226.146 217 225 213.75 225C210.5 225 207.729 226.146 205.438 228.438ZM209.094 252.969C207.698 251.677 207 250.073 207 248.156V236.656C207.021 234.865 207.677 233.323 208.969 232.031C210.281 230.719 211.812 230.062 213.562 230.062C215.562 230.062 217.229 230.719 218.562 232.031C219.854 233.302 220.521 234.906 220.562 236.844V248.156C220.521 250.094 219.854 251.698 218.562 252.969C217.229 254.281 215.688 254.938 213.938 254.938C212.125 254.938 210.51 254.281 209.094 252.969Z" fill="white"/>
<path d="M237.938 236.75V260L242.938 257.812V236.75C242.938 234.917 243.604 233.354 244.938 232.062C246.292 230.729 247.906 230.062 249.781 230.062C251.594 230.062 253.167 230.719 254.5 232.031C255.792 233.302 256.458 234.906 256.5 236.844V260L261.5 257.812V236.75C261.5 233.5 260.344 230.729 258.031 228.438C255.719 226.146 252.938 225 249.688 225C246.438 225 243.667 226.146 241.375 228.438C239.083 230.729 237.938 233.5 237.938 236.75Z" fill="white"/>
<path d="M335.094 244.969L315.656 236.688L335.094 227.938L333.031 223.312L310.281 233.906L308.094 238.906L332.906 249.969L335.094 244.969Z" fill="white"/>
<path d="M373.938 203.969L369.406 201.844L341.125 268.812L345.656 270.938L373.938 203.969Z" fill="white"/>
<path d="M379.969 228.312L399.406 236.594L379.969 245.344L382.031 249.969L404.781 239.375L406.969 234.375L382.156 223.312L379.969 228.312Z" fill="white"/>
<path fill-rule="evenodd" clip-rule="evenodd" d="M91.9375 265.969V311L96.9375 308.812V292.594H106.094C109.927 292.594 113.208 291.219 115.938 288.469C118.646 285.74 120 282.417 120 278.5C120 274.625 118.635 271.302 115.906 268.531C113.219 265.781 109.948 264.406 106.094 264.406H96.9375L91.9375 265.969ZM96.9375 287.594V269.406H106.188C108.667 269.406 110.792 270.302 112.562 272.094C114.333 273.885 115.219 276.021 115.219 278.5C115.219 281.021 114.333 283.167 112.562 284.938C110.792 286.708 108.667 287.594 106.188 287.594H96.9375Z" fill="white"/>
<path d="M146.719 303.969C145.406 305.281 143.875 305.938 142.125 305.938C140.125 305.938 138.458 305.281 137.125 303.969C135.833 302.698 135.167 301.094 135.125 299.156V276L130.125 278.188V299.25C130.125 302.5 131.281 305.271 133.594 307.562C135.906 309.854 138.688 311 141.938 311C145.188 311 147.958 309.854 150.25 307.562C152.542 305.271 153.688 302.5 153.688 299.25V276L148.688 278.188V299.25C148.688 301.083 148.031 302.656 146.719 303.969Z" fill="white"/>
<path d="M189.625 296.75L184.625 298.938C184.625 300.979 183.958 302.646 182.625 303.938C181.271 305.271 179.667 305.938 177.812 305.938C176 305.938 174.417 305.281 173.062 303.969C171.771 302.719 171.104 301.115 171.062 299.156V281.625H184.75L186.938 276.625H171.062V263.781L166.062 265.969V276.625H164.375L162.188 281.625H166.062V299.25C166.062 302.5 167.219 305.271 169.531 307.562C171.844 309.854 174.625 311 177.875 311C181.125 311 183.896 309.854 186.188 307.562C188.479 305.271 189.625 302.5 189.625 299.25V296.75Z" fill="white"/>
<path d="M225.562 296.75L220.562 298.938C220.562 300.979 219.896 302.646 218.562 303.938C217.208 305.271 215.604 305.938 213.75 305.938C211.938 305.938 210.354 305.281 209 303.969C207.708 302.719 207.042 301.115 207 299.156V281.625H220.688L222.875 276.625H207V263.781L202 265.969V276.625H200.312L198.125 281.625H202V299.25C202 302.5 203.156 305.271 205.469 307.562C207.781 309.854 210.562 311 213.812 311C217.062 311 219.833 309.854 222.125 307.562C224.417 305.271 225.562 302.5 225.562 299.25V296.75Z" fill="white"/>
<path fill-rule="evenodd" clip-rule="evenodd" d="M254.5 303.969C253.167 305.281 251.625 305.938 249.875 305.938C247.875 305.938 246.219 305.271 244.906 303.938C243.594 302.583 242.938 300.917 242.938 298.938L261.5 290.688V287.75C261.5 284.375 260.344 281.604 258.031 279.438C255.594 277.146 252.812 276 249.688 276C246.438 276 243.667 277.146 241.375 279.438C239.083 281.729 237.938 284.5 237.938 287.75V299.25C237.938 302.5 239.083 305.271 241.375 307.562C243.667 309.854 246.438 311 249.688 311C252.938 311 255.625 309.875 257.75 307.625C260.25 304.958 261.5 302.167 261.5 299.25V296.5L256.5 298.719V299.156C256.458 301.094 255.792 302.698 254.5 303.969ZM244.906 283.031C246.219 281.719 247.75 281.062 249.5 281.062C251.5 281.062 253.167 281.719 254.5 283.031C255.708 284.219 256.365 285.688 256.469 287.438L242.938 293.469V287.75C242.938 285.917 243.594 284.344 244.906 283.031Z" fill="white"/>
<path d="M273.875 287.75V311L278.875 308.812V287.75C278.875 285.917 279.542 284.344 280.875 283.031C282.208 281.719 283.823 281.062 285.719 281.062C287.531 281.062 289.104 281.719 290.438 283.031C291.729 284.302 292.396 285.906 292.438 287.844V290.062L297.438 287.875V287.75C297.438 284.583 296.281 281.812 293.969 279.438C291.719 277.146 288.938 276 285.625 276C282.375 276 279.604 277.146 277.312 279.438C275.021 281.729 273.875 284.5 273.875 287.75Z" fill="white"/>
<path d="M307.062 284.5V311L312.062 308.812L312.094 284.656C312.094 283.615 312.448 282.729 313.156 282C313.865 281.271 314.698 280.906 315.656 280.906C316.594 280.906 317.406 281.271 318.094 282C318.781 282.729 319.125 283.615 319.125 284.656L319.094 311L324.094 308.812L324.125 284.656V284.625C324.125 283.625 324.479 282.75 325.188 282C325.875 281.271 326.708 280.906 327.688 280.906C328.625 280.906 329.438 281.271 330.125 282C330.812 282.729 331.156 283.615 331.156 284.656L331.125 311L336.125 308.812V284.531C336.104 282.115 335.302 280.083 333.719 278.438C332.156 276.812 330.125 276 327.625 276C325.292 276 323.292 276.812 321.625 278.438C320.042 276.812 318.031 276 315.594 276C313.24 276 311.229 276.833 309.562 278.5C307.896 280.167 307.062 282.167 307.062 284.5Z" fill="white"/>
<path d="M351.594 303.938C351.052 303.208 350.781 302.5 350.781 301.812C350.781 300.104 351.865 298.74 354.031 297.719L364.312 293.531V311L369.312 308.812V287.75C369.312 284.5 368.167 281.729 365.875 279.438C363.583 277.146 360.812 276 357.562 276C354.312 276 351.625 277.125 349.5 279.375C347 282.042 345.75 284.833 345.75 287.75V290.5L350.75 288.281V287.844C350.792 285.906 351.458 284.302 352.75 283.031C354.083 281.719 355.625 281.062 357.375 281.062C359.375 281.062 361.031 281.74 362.344 283.094C363.656 284.427 364.312 286.083 364.312 288.062L351.594 293.281C347.615 294.906 345.625 297.667 345.625 301.562V301.812C345.625 303.979 346.438 305.896 348.062 307.562C350.479 309.854 353.25 311 356.375 311C358.354 311 360.156 310.573 361.781 309.719L359.906 305C358.885 305.625 357.708 305.938 356.375 305.938C354.188 305.938 352.594 305.271 351.594 303.938Z" fill="white"/>
<path d="M381.688 287.75V311L386.688 308.812V287.75C386.688 285.917 387.354 284.354 388.688 283.062C390.042 281.729 391.656 281.062 393.531 281.062C395.344 281.062 396.917 281.719 398.25 283.031C399.542 284.302 400.208 285.906 400.25 287.844V311L405.25 308.812V287.75C405.25 284.5 404.094 281.729 401.781 279.438C399.469 277.146 396.688 276 393.438 276C390.188 276 387.417 277.146 385.125 279.438C382.833 281.729 381.688 284.5 381.688 287.75Z" fill="white"/>
<path d="M265 322V382C265 390.284 271.716 397 280 397C288.284 397 295 390.284 295 382H325C325 406.853 304.853 427 280 427C255.147 427 235 406.853 235 382V322H265Z" fill="white"/>
</svg>
